<svg width="204" height="1302" viewBox="0 0 204 1302" fill="none" xmlns="http://www.w3.org/2000/svg">
<path d="M167.804 159.561C167.804 121.928 154.494 95.4683 133.94 86.4523L165.064 84.2963L165.064 40L30.0001 40L30.0001 87.0403L98.9022 87.0403C78.7405 96.4483 66.2128 122.516 66.2128 159.561C66.2128 201.701 83.2426 232.669 117.106 232.669C149.209 232.669 167.804 201.897 167.804 159.561ZM96.1617 141.921C96.1617 111.932 100.468 87.0403 117.106 87.0403C133.549 87.0403 138.051 111.932 138.051 141.921C138.051 168.577 131.004 183.865 117.106 183.865C103.013 183.865 96.1617 168.577 96.1617 141.921Z" fill="#D5DEDC"/>
<path d="M168 346.051C168 318.611 146.86 301.559 131.983 295.483L165.064 295.483L165.064 248.443L69.149 248.443L69.149 295.483L115.932 295.483C119.455 300.775 128.851 317.435 128.851 346.051L168 346.051Z" fill="#D5DEDC"/>
<path d="M66.2128 450.025C66.2128 511.962 80.5021 542.342 116.911 542.342C153.123 542.342 168 511.962 168 450.025C168 387.697 153.123 356.925 116.911 356.925C80.5022 356.925 66.2128 387.697 66.2128 450.025ZM95.5745 450.025C95.5745 420.429 102.817 404.945 116.911 404.945C131.004 404.945 138.638 420.821 138.638 450.025C138.638 479.229 130.809 494.322 116.911 494.322C102.817 494.322 95.5745 478.837 95.5745 450.025Z" fill="#D5DEDC"/>
<path d="M110.843 737.093L110.843 693.973C102.817 689.465 96.9447 674.569 96.9447 651.049C96.9447 622.433 101.838 604.009 116.911 604.009C131.983 604.009 137.268 622.825 137.268 651.049C137.268 674.569 131.396 689.465 123.37 693.581L123.37 736.897C151.362 736.505 168 711.809 168 651.049C168 590.289 154.102 555.988 116.911 555.988C79.7192 555.988 66.2128 590.289 66.2128 651.049C66.2128 711.809 82.4596 737.093 110.843 737.093Z" fill="#D5DEDC"/>
<path d="M103.404 885.298C97.9234 882.162 94.7915 867.07 94.7915 844.53C94.7915 811.797 103.404 800.429 113.583 798.469L113.583 931.946C153.515 932.534 168 905.878 168 846.49C168 785.729 154.494 750.841 116.911 750.841C78.7404 750.841 66.2128 787.297 66.2128 846.49C66.2128 902.35 80.5021 927.634 103.404 931.358L103.404 885.298ZM139.226 844.53C139.226 872.558 132.374 884.122 125.915 886.082L125.915 800.037C131.787 802.585 139.226 816.893 139.226 844.53Z" fill="#D5DEDC"/>
<path d="M103.404 946.674C90.0936 944.91 66.2128 956.866 66.2128 1022.72C66.2128 1067.8 75.0213 1097.01 97.5319 1097.01C122 1097.01 122.587 1066.43 122.587 1036.05C122.587 1001.16 125.132 994.694 131.004 994.694C136.877 994.694 138.638 1002.53 138.638 1022.72C138.638 1041.73 137.072 1048.4 130.613 1051.14L130.613 1093.28C151.362 1093.48 168 1071.72 168 1022.72C168 980.582 160.757 945.694 135.702 945.694C115.149 945.694 111.234 968.43 111.234 1006.45C111.234 1036.25 109.277 1047.81 103.013 1047.81C98.7064 1047.81 95.5745 1044.67 95.5745 1022.53C95.5745 1003.32 96.7489 993.518 103.404 989.99L103.404 946.674Z" fill="#D5DEDC"/>
<path d="M103.404 1111.67C90.0936 1109.9 66.2128 1121.86 66.2128 1187.72C66.2128 1232.8 75.0213 1262 97.5319 1262C122 1262 122.587 1231.42 122.587 1201.04C122.587 1166.16 125.132 1159.69 131.004 1159.69C136.877 1159.69 138.638 1167.53 138.638 1187.72C138.638 1206.73 137.072 1213.39 130.613 1216.14L130.613 1258.28C151.362 1258.47 168 1236.72 168 1187.72C168 1145.58 160.757 1110.69 135.702 1110.69C115.149 1110.69 111.234 1133.42 111.234 1171.45C111.234 1201.24 109.277 1212.8 103.013 1212.8C98.7064 1212.8 95.5745 1209.67 95.5745 1187.52C95.5745 1168.31 96.7489 1158.51 103.404 1154.98L103.404 1111.67Z" fill="#D5DEDC"/>
</svg>
