<svg width="204" height="1007" viewBox="0 0 204 1007" fill="none" xmlns="http://www.w3.org/2000/svg">
<path d="M141.567 326.06L44.9575 263.213L44.9575 218.689L101.938 182.439L44.9575 144.219L44.9575 99.6943L141.567 40L141.567 92.0109L82.2213 124.124L141.567 156.828L141.567 209.035L82.2213 239.966L141.567 273.852L141.567 326.06Z" fill="#1F6246"/>
<path d="M42 419.616C42 387.7 46.009 364.124 54.027 348.889C62.045 333.653 75.0577 326.035 93.0653 326.035C111.073 326.035 124.151 333.653 132.301 348.889C140.45 364.256 144.525 387.831 144.525 419.616C144.525 451.137 140.45 474.45 132.301 489.555C124.151 504.79 111.073 512.408 93.0653 512.408C75.0577 512.408 62.045 504.856 54.027 489.752C46.009 474.647 42 451.269 42 419.616ZM71.5745 419.616C71.5745 434.194 73.349 445.227 76.8979 452.713C80.5783 460.331 85.9674 464.14 93.0653 464.14C100.163 464.14 105.552 460.331 109.233 452.713C113.044 445.227 114.95 434.194 114.95 419.616C114.95 404.905 113.044 393.676 109.233 385.927C105.552 378.178 100.163 374.303 93.0653 374.303C85.9674 374.303 80.5783 378.112 76.8979 385.73C73.349 393.479 71.5745 404.774 71.5745 419.616Z" fill="#1F6246"/>
<path d="M105.092 626.206C105.092 613.86 103.646 603.419 100.755 594.882C97.9943 586.476 95.1026 579.974 92.0794 575.377L44.9575 575.377L44.9575 528.095L141.567 528.095L141.567 575.377L108.247 575.377C113.899 577.742 119.485 581.156 125.006 585.622C130.526 590.219 135.127 595.998 138.807 602.959C142.619 609.92 144.525 617.669 144.525 626.206L105.092 626.206Z" fill="#1F6246"/>
<path d="M181 641.076L181 688.359L44.9575 688.359L44.9575 641.076L181 641.076ZM44.9575 814.84L44.5631 754.948L99.966 689.147L141.567 745.492L141.567 808.141L99.3745 747.856L44.9575 814.84Z" fill="#1F6246"/>
<path d="M79.6582 859.432C76.3721 861.139 74.2033 864.423 73.1518 869.283C72.2317 874.142 71.7716 881.826 71.7716 892.333C71.7716 902.577 72.3631 909.341 73.5461 912.625C74.7291 916.04 76.5693 917.747 79.0667 917.747C82.2213 917.747 84.3901 914.661 85.5731 908.488C86.756 902.315 87.3475 891.479 87.3475 875.981C87.3475 862.19 88.0047 850.895 89.3192 842.095C90.6336 833.427 93.0653 826.728 96.6142 822C100.295 817.272 105.421 814.907 111.993 814.907C133.681 814.907 144.525 840.716 144.525 892.333C144.525 908.225 142.882 921.49 139.596 932.129C136.31 942.899 131.841 950.845 126.189 955.967C120.537 961.09 114.096 963.585 106.867 963.454L106.867 921.096C110.153 919.652 112.322 916.959 113.373 913.019C114.425 909.079 114.95 902.183 114.95 892.333C114.95 881.957 114.359 874.668 113.176 870.465C112.124 866.262 110.153 864.16 107.261 864.16C105.158 864.16 103.515 865.211 102.332 867.312C101.149 869.545 100.229 873.617 99.5716 879.527C99.0459 885.569 98.783 894.369 98.783 905.927C98.783 919.061 98.3229 929.765 97.4028 938.039C96.4827 946.314 94.1825 953.209 90.5021 958.726C86.8217 964.242 81.1697 967 73.5461 967C52.5154 967 42 942.111 42 892.333C42 873.026 43.8402 857.659 47.5206 846.232C51.201 834.937 55.67 827.057 60.9277 822.591C66.3168 818.125 71.7716 815.893 77.2922 815.893L79.6582 815.893L79.6582 859.432Z" fill="#1F6246"/>
</svg>
