<svg width="204" height="1489" viewBox="0 0 204 1489" fill="none" xmlns="http://www.w3.org/2000/svg">
<path d="M154.806 284.162C154.806 301.658 150.793 315.978 142.767 327.124C134.871 338.399 121.537 344.036 102.767 344.036L56.7476 344.036L56.7476 297.381L96.9418 297.381C103.544 297.381 108.786 296.28 112.67 294.076C116.553 291.873 119.337 288.245 121.019 283.19C122.832 278.136 123.738 271.202 123.738 262.39C123.738 252.8 122.443 243.987 119.854 235.952C117.395 228.046 114.676 221.372 111.699 215.929C108.981 216.318 106.003 216.512 102.767 216.512L56.7476 216.512L56.7476 169.857L96.9418 169.857C103.544 169.857 108.786 168.755 112.67 166.552C116.553 164.349 119.337 160.72 121.019 155.666C122.832 150.612 123.738 143.678 123.738 134.866C123.738 124.498 122.314 115.102 119.466 106.678C116.618 98.3838 113.706 91.7095 110.728 86.6552L56.7476 86.6552L56.7476 40L151.893 40L151.893 86.6552L122.573 86.6552C127.362 89.5063 132.152 93.8479 136.942 99.6798C141.861 105.641 146.068 113.417 149.563 123.007C153.058 132.727 154.806 143.937 154.806 156.638C154.806 170.505 152.282 182.493 147.233 192.601C142.314 202.84 134.094 209.838 122.573 213.596C126.845 216.318 131.44 220.854 136.359 227.204C141.408 233.554 145.744 241.589 149.369 251.309C152.994 261.159 154.806 272.11 154.806 284.162Z" fill="#EEBECE"/>
<path d="M90.9223 538.879C79.1424 536.936 70.0162 529.095 63.5437 515.358C57.0712 501.62 53.835 481.338 53.835 454.511C53.835 423.408 57.6538 399.821 65.2913 383.751C73.0583 367.681 86.0033 359.646 104.126 359.646C122.12 359.646 135.065 367.616 142.961 383.557C150.858 399.497 154.806 423.149 154.806 454.511C154.806 474.599 153.058 490.864 149.563 503.305C146.068 515.746 140.372 524.883 132.476 530.715C124.579 536.676 114.029 539.527 100.825 539.268L100.825 407.079C95.2589 408.115 90.7282 412.198 87.233 419.326C83.8673 426.453 82.1845 437.534 82.1845 452.567C82.1845 463.842 82.8965 473.044 84.3204 480.172C85.8738 487.3 88.0744 491.576 90.9223 493.002L90.9223 538.879ZM126.262 452.567C126.262 444.014 125.615 436.562 124.32 430.212C123.026 423.861 121.343 418.872 119.272 415.243C117.33 411.615 115.324 409.347 113.252 408.439L113.252 493.974C116.877 492.807 119.919 488.79 122.379 481.921C124.968 475.182 126.262 465.398 126.262 452.567Z" fill="#EEBECE"/>
<path d="M90.9223 596.837C87.6861 598.522 85.5502 601.762 84.5146 606.557C83.6084 611.352 83.1553 618.933 83.1553 629.301C83.1553 639.41 83.7379 646.084 84.9029 649.324C86.068 652.694 87.8803 654.378 90.3398 654.378C93.4466 654.378 95.5825 651.333 96.7476 645.242C97.9126 639.151 98.4951 628.459 98.4951 613.166C98.4951 599.559 99.1424 588.413 100.437 579.73C101.731 571.177 104.126 564.567 107.621 559.902C111.246 555.236 116.294 552.903 122.767 552.903C144.126 552.903 154.806 578.369 154.806 629.301C154.806 644.983 153.188 658.072 149.951 668.569C146.715 679.196 142.314 687.037 136.748 692.091C131.181 697.146 124.838 699.608 117.718 699.478L117.718 657.683C120.955 656.258 123.091 653.601 124.126 649.713C125.162 645.825 125.68 639.021 125.68 629.301C125.68 619.063 125.097 611.87 123.932 607.723C122.896 603.576 120.955 601.503 118.107 601.503C116.036 601.503 114.417 602.539 113.252 604.613C112.087 606.816 111.181 610.834 110.534 616.666C110.016 622.627 109.757 631.31 109.757 642.715C109.757 655.674 109.304 666.237 108.398 674.401C107.492 682.566 105.227 689.37 101.602 694.813C97.9773 700.256 92.411 702.978 84.9029 702.978C64.1909 702.978 53.835 678.419 53.835 629.301C53.835 610.25 55.6473 595.087 59.2719 583.812C62.8965 572.667 67.2978 564.891 72.4757 560.485C77.7832 556.079 83.1553 553.875 88.5922 553.875L90.9223 553.875L90.9223 596.837Z" fill="#EEBECE"/>
<path d="M90.9223 760.48C87.6861 762.164 85.5502 765.404 84.5146 770.199C83.6084 774.994 83.1553 782.576 83.1553 792.944C83.1553 803.052 83.7379 809.727 84.9029 812.967C86.068 816.336 87.8803 818.021 90.3398 818.021C93.4466 818.021 95.5825 814.975 96.7476 808.884C97.9126 802.793 98.4951 792.101 98.4951 776.809C98.4951 763.201 99.1424 752.056 100.437 743.373C101.731 734.819 104.126 728.21 107.621 723.544C111.246 718.879 116.294 716.546 122.767 716.546C144.126 716.546 154.806 742.012 154.806 792.944C154.806 808.625 153.188 821.714 149.951 832.212C146.715 842.839 142.314 850.68 136.748 855.734C131.181 860.788 124.838 863.251 117.718 863.121L117.718 821.326C120.955 819.9 123.091 817.243 124.126 813.355C125.162 809.467 125.68 802.664 125.68 792.944C125.68 782.706 125.097 775.513 123.932 771.366C122.896 767.219 120.955 765.145 118.107 765.145C116.036 765.145 114.417 766.182 113.252 768.255C112.087 770.459 111.181 774.476 110.534 780.308C110.016 786.269 109.757 794.953 109.757 806.357C109.757 819.317 109.304 829.879 108.398 838.044C107.492 846.208 105.227 853.012 101.602 858.455C97.9773 863.899 92.411 866.62 84.9029 866.62C64.1909 866.62 53.835 842.061 53.835 792.944C53.835 773.893 55.6473 758.73 59.2719 747.455C62.8965 736.31 67.2977 728.534 72.4757 724.127C77.7832 719.721 83.1553 717.518 88.5922 717.518L90.9223 717.518L90.9223 760.48Z" fill="#EEBECE"/>
<path d="M151.893 1071.28L56.7476 1071.28L56.7476 1027.35C64.9029 1025.92 74.8705 1025.01 86.6505 1024.63C76.5534 1019.96 68.5922 1011.34 62.767 998.77C56.9418 986.199 54.0291 970.842 54.0291 952.698C54.0291 938.702 56.0356 926.196 60.0485 915.18C64.0615 904.164 69.822 895.546 77.3301 889.325C84.9676 883.234 93.9644 880.188 104.32 880.188C115.194 880.188 124.385 883.234 131.893 889.325C139.531 895.546 145.226 904.099 148.981 914.985C152.864 925.872 154.806 938.443 154.806 952.698C154.806 970.842 151.893 986.135 146.068 998.576C140.243 1011.15 132.282 1019.83 122.184 1024.63L151.893 1024.63L151.893 1071.28ZM83.5437 970.194C83.5437 1006.48 90.4692 1024.63 104.32 1024.63C111.958 1024.63 117.33 1019.7 120.437 1009.85C123.544 1000.13 125.097 986.912 125.097 970.194C125.097 956.716 123.349 946.413 119.854 939.285C116.359 932.157 111.181 928.593 104.32 928.593C97.4595 928.593 92.2815 932.157 88.7864 939.285C85.2912 946.542 83.5437 956.845 83.5437 970.194Z" fill="#EEBECE"/>
<path d="M155 1264.6L130.34 1264.6C130.21 1263.31 130.146 1261.36 130.146 1258.77C130.146 1249.31 131.246 1239.07 133.447 1228.06C126.715 1240.89 118.171 1247.3 107.816 1247.3C95.3883 1247.3 86.0032 1240.82 79.6602 1227.86C73.3171 1215.03 70.1456 1194.88 70.1456 1167.4C70.1456 1156.39 69.5631 1148.74 68.398 1144.47C67.233 1140.32 65.0971 1138.25 61.9903 1138.25C58.4951 1138.25 56.7476 1141.36 56.7476 1147.58L56.7476 1204.92C56.7476 1218.01 55.8414 1228.12 54.0291 1235.25C52.0874 1242.51 48.9158 1247.69 44.5146 1250.8C40.1133 1253.91 33.9644 1255.47 26.068 1255.47L15 1255.47L15 1208.81L20.2427 1208.81C23.8673 1208.81 26.1327 1207.06 27.0388 1203.56C27.8155 1200.19 28.2039 1194.81 28.2039 1187.43L28.2039 1133.19C28.2039 1116.6 30.2751 1105.39 34.4175 1099.56C38.5599 1093.73 43.932 1090.81 50.534 1090.81C57.7832 1090.81 63.0259 1094.38 66.2621 1101.5C69.4984 1108.63 71.4401 1119.97 72.0874 1135.52C74.4175 1118.94 78.8188 1106.69 85.2912 1098.78C91.8932 1090.88 100.696 1086.92 111.699 1086.92C125.162 1086.92 135.712 1093.47 143.349 1106.56C150.987 1119.78 154.806 1140.06 154.806 1167.4L155 1264.6ZM96.3592 1167.4C96.3592 1179.72 97.6537 1188.72 100.243 1194.43C102.832 1200.13 106.392 1202.98 110.922 1202.98C120.631 1202.98 125.485 1191.12 125.485 1167.4C125.485 1154.96 124.191 1145.83 121.602 1140C119.013 1134.16 115.453 1131.25 110.922 1131.25C106.392 1131.25 102.832 1134.1 100.243 1139.8C97.6537 1145.63 96.3592 1154.83 96.3592 1167.4Z" fill="#EEBECE"/>
<path d="M90.9223 1448.6C79.1424 1446.65 70.0162 1438.81 63.5437 1425.07C57.0712 1411.34 53.8349 1391.05 53.8349 1364.23C53.8349 1333.12 57.6537 1309.54 65.2913 1293.47C73.0582 1277.4 86.0032 1269.36 104.126 1269.36C122.12 1269.36 135.065 1277.33 142.961 1293.27C150.858 1309.21 154.806 1332.86 154.806 1364.23C154.806 1384.31 153.058 1400.58 149.563 1413.02C146.068 1425.46 140.372 1434.6 132.476 1440.43C124.579 1446.39 114.029 1449.24 100.825 1448.98L100.825 1316.79C95.2589 1317.83 90.7281 1321.91 87.233 1329.04C83.8673 1336.17 82.1844 1347.25 82.1844 1362.28C82.1844 1373.56 82.8964 1382.76 84.3204 1389.89C85.8738 1397.02 88.0744 1401.29 90.9223 1402.72L90.9223 1448.6ZM126.262 1362.28C126.262 1353.73 125.615 1346.28 124.32 1339.93C123.026 1333.58 121.343 1328.59 119.272 1324.96C117.33 1321.33 115.324 1319.06 113.252 1318.15L113.252 1403.69C116.877 1402.52 119.919 1398.51 122.379 1391.64C124.968 1384.9 126.262 1375.11 126.262 1362.28Z" fill="#EEBECE"/>
</svg>
