<svg width="204" height="1014" viewBox="0 0 204 1014" fill="none" xmlns="http://www.w3.org/2000/svg">
<path d="M139.567 233.777L42.9575 233.777L42.9575 189.226C51.2383 187.78 61.3594 186.86 73.3206 186.466C63.0681 181.735 54.9845 172.996 49.0696 160.248C43.1547 147.5 40.1972 131.927 40.1972 113.529C40.1972 99.3355 42.2346 86.6536 46.3093 75.483C50.384 64.3124 56.2331 55.5731 63.8568 49.265C71.6119 43.0883 80.7471 40 91.2624 40C102.304 40 111.636 43.0883 119.26 49.265C127.015 55.5731 132.798 64.2467 136.61 75.2859C140.553 86.3251 142.525 99.0727 142.525 113.529C142.525 131.927 139.567 147.435 133.652 160.051C127.738 172.799 119.654 181.604 109.401 186.466L139.567 186.466L139.567 233.777ZM70.166 131.27C70.166 168.067 77.1981 186.466 91.2624 186.466C99.0175 186.466 104.472 181.472 107.627 171.484C110.782 161.628 112.359 148.223 112.359 131.27C112.359 117.603 110.584 107.155 107.035 99.9269C103.487 92.6989 98.2289 89.0849 91.2624 89.0849C84.296 89.0849 79.0383 92.6989 75.4894 99.9269C71.9405 107.286 70.166 117.734 70.166 131.27Z" fill="#060807"/>
<path d="M142.525 376.835C142.525 391.291 140.553 404.038 136.61 415.078C132.798 426.117 127.015 434.725 119.26 440.901C111.636 447.209 102.304 450.363 91.2624 450.363C80.7471 450.363 71.6118 447.209 63.8568 440.901C56.2331 434.725 50.384 426.051 46.3093 414.88C42.2346 403.71 40.1972 391.028 40.1972 376.835C40.1972 358.436 43.1547 342.863 49.0696 330.115C54.9844 317.368 63.0681 308.628 73.3206 303.897C61.3594 303.503 51.2383 302.583 42.9575 301.138L42.9575 256.587L179 256.587L179 303.897L109.401 303.897C119.654 308.76 127.738 317.499 133.652 330.115C139.567 342.863 142.525 358.436 142.525 376.835ZM70.166 359.093C70.166 372.629 71.9405 383.011 75.4894 390.239C79.0383 397.599 84.296 401.279 91.2624 401.279C98.2289 401.279 103.487 397.665 107.035 390.437C110.584 383.209 112.359 372.761 112.359 359.093C112.359 342.14 110.782 328.67 107.627 318.682C104.472 308.826 99.0175 303.897 91.2624 303.897C77.1981 303.897 70.166 322.296 70.166 359.093Z" fill="#060807"/>
<path d="M40 557.73C40 525.796 44.009 502.206 52.027 486.961C60.045 471.717 73.0577 464.095 91.0653 464.095C109.073 464.095 122.151 471.717 130.301 486.961C138.45 502.337 142.525 525.927 142.525 557.73C142.525 589.271 138.45 612.598 130.301 627.711C122.151 642.955 109.073 650.578 91.0653 650.578C73.0577 650.578 60.0449 643.021 52.027 627.908C44.009 612.795 40 589.402 40 557.73ZM69.5745 557.73C69.5745 572.318 71.349 583.357 74.8979 590.848C78.5783 598.47 83.9674 602.281 91.0653 602.281C98.1631 602.281 103.552 598.47 107.233 590.848C111.044 583.357 112.95 572.318 112.95 557.73C112.95 543.012 111.044 531.775 107.233 524.022C103.552 516.268 98.1631 512.391 91.0653 512.391C83.9674 512.391 78.5783 516.202 74.8979 523.824C71.349 531.578 69.5745 542.88 69.5745 557.73Z" fill="#060807"/>
<path d="M139.567 845.266L42.9575 845.266L42.9575 797.955L76.278 797.955C70.7575 795.196 65.1712 790.793 59.5192 784.748C53.9986 778.834 49.3324 771.212 45.5206 761.881C41.8402 752.682 40 742.365 40 730.932C40 711.613 44.1405 695.975 52.4213 684.015C60.7022 672.188 74.5036 666.274 93.8255 666.274L139.567 666.274L139.567 713.585L98.7546 713.585C91.5253 713.585 85.939 714.767 81.9958 717.133C78.1839 719.63 75.4894 723.375 73.9121 728.369C72.3348 733.495 71.5461 740.394 71.5461 749.068C71.5461 760.107 73.5835 769.766 77.6582 778.046C81.8643 786.456 86.2676 793.093 90.8681 797.955L139.567 797.955L139.567 845.266Z" fill="#060807"/>
<path d="M109.993 974L109.993 939.7L42.9575 939.7L42.9575 892.389L109.993 892.389L109.993 858.089L139.567 858.089L139.567 892.389L169.142 892.389L169.142 939.7L139.567 939.7L139.567 974L109.993 974Z" fill="#060807"/>
</svg>
