<svg width="648" height="648" viewBox="0 0 648 648" fill="none" xmlns="http://www.w3.org/2000/svg">
<mask id="mask0" mask-type="alpha" maskUnits="userSpaceOnUse" x="0" y="0" width="648" height="648">
<rect width="648" height="648" fill="#C4C4C4"/>
</mask>
<g mask="url(#mask0)">
<rect width="648" height="648" fill="#060807"/>
<path d="M395.408 161.321C443.641 -47.809 623.175 58.5456 725 32.6279V719H-103V357.047C97.9709 405.308 347.175 370.45 395.408 161.321Z" fill="#0B24FB"/>
<path d="M488.487 153.356C576.956 99.3302 689.453 164.271 767 215.567L767 764H200.145C85.4637 688.693 77.2725 526.618 172.294 467.682C267.316 408.746 359.061 508.61 440.977 431.665C522.892 354.721 400.019 207.381 488.487 153.356Z" fill="#EEBECE"/>
<path d="M681.573 470.408C680.039 294.254 845.717 349.398 881 282V740H410.045C233.629 410.669 683.107 646.562 681.573 470.408Z" fill="#FF8787"/>
</g>
</svg>
