<svg width="648" height="648" viewBox="0 0 648 648" fill="none" xmlns="http://www.w3.org/2000/svg">
<mask id="mask0" mask-type="alpha" maskUnits="userSpaceOnUse" x="0" y="0" width="648" height="648">
<rect width="648" height="648" fill="#C4C4C4"/>
</mask>
<g mask="url(#mask0)">
<rect width="648" height="648" fill="#060807"/>
<circle cx="383.357" cy="682.357" r="92.5" transform="rotate(60 383.357 682.357)" fill="#0B24FB"/>
<circle cx="194.052" cy="74.0522" r="30.0523" transform="rotate(60 194.052 74.0522)" fill="#0B24FB"/>
<path d="M195.44 655.612C438.615 338.033 23.228 533.529 115.056 266.938C206.883 0.348292 -99.9342 -36.8613 -99.9342 -36.8613L-354.159 866.03C-272.282 928.216 -47.7348 973.191 195.44 655.612Z" fill="#FF8787"/>
<path d="M340.879 -235.621C119.868 340.263 533.358 92.7879 514.028 527.14C494.698 961.492 1080.77 659.332 1080.77 659.332L1062.21 -786.929C913.856 -843.111 561.889 -811.505 340.879 -235.621Z" fill="#0B24FB"/>
</g>
</svg>
