<svg width="648" height="648" viewBox="0 0 648 648" fill="none" xmlns="http://www.w3.org/2000/svg">
<mask id="mask0" mask-type="alpha" maskUnits="userSpaceOnUse" x="0" y="0" width="648" height="648">
<rect width="648" height="648" fill="#C4C4C4"/>
</mask>
<g mask="url(#mask0)">
<rect width="648" height="648" fill="#060807"/>
<circle cx="174.357" cy="403.357" r="92.5" transform="rotate(60 174.357 403.357)" fill="#0B24FB"/>
<path d="M597.012 145.304C208.634 240.975 655.01 348.276 416.609 498.835C178.208 649.393 394.317 870.342 394.317 870.342L1157.44 324.914C1132.45 225.182 985.39 49.6335 597.012 145.304Z" fill="#EEBECE"/>
<path d="M-60.9024 71.0021C486.972 354.412 286.798 -83.9343 716.34 -16.6342C1145.88 50.6658 910.466 -565.257 910.466 -565.257L-528.958 -706.936C-601.221 -565.711 -608.777 -212.408 -60.9024 71.0021Z" fill="#0B24FB"/>
</g>
</svg>
