<svg xmlns="http://www.w3.org/2000/svg"><symbol id="ico-CSSDA" viewBox="0 0 68 68"><path d="M13.201 32.523c.374 0 .623 0 .872.125.25.124.623.249.872.373l.623-1.619c-.748-.373-1.495-.498-2.367-.498-.747 0-1.37.125-1.992.498-.623.374-.997.748-1.246 1.37-.249.623-.498 1.246-.498 2.118 0 1.245.25 2.241.872 2.989.623.622 1.494.996 2.615.996.872 0 1.495-.124 2.117-.374v-1.743c-.373.124-.622.249-.996.373-.373.125-.623.125-.996.125-1.121 0-1.744-.747-1.744-2.242 0-.747.125-1.245.374-1.619.623-.623.996-.872 1.494-.872zM22.417 37.01c-.374 0-.747 0-1.12-.125-.375-.125-.873-.25-1.246-.498v1.868l1.12.373c.374.125.748.125 1.246.125.623 0 1.12-.125 1.619-.25.498-.248.747-.497.996-.871.25-.374.374-.747.374-1.245 0-.499-.125-.997-.374-1.246-.249-.373-.747-.623-1.37-.996-.747-.374-1.12-.498-1.245-.623-.125-.124-.25-.249-.25-.373 0-.125 0-.25.125-.374.125-.125.374-.125.623-.125.498 0 1.121.125 1.868.498l.623-1.619c-.872-.373-1.62-.498-2.49-.498-.873 0-1.62.25-2.118.623-.498.374-.747.996-.747 1.619 0 .374 0 .747.124.996.125.25.25.498.498.748.25.249.623.498 1.121.622.498.25.872.374.997.498.124.125.249.125.249.25 0 .124.124.124.124.249 0 .124-.124.249-.249.373h-.498zM32.132 37.01c-.373 0-.747 0-1.12-.125-.374-.125-.872-.25-1.246-.498v1.868l1.121.373c.374.125.747.125 1.245.125.623 0 1.121-.125 1.62-.25.498-.248.747-.497.996-.871s.373-.747.373-1.245c0-.499-.124-.997-.373-1.246-.25-.373-.747-.623-1.37-.996-.747-.374-1.121-.498-1.246-.623-.124-.124-.249-.249-.249-.373 0-.125 0-.25.125-.374.124-.125.373-.125.623-.125.498 0 1.12.125 1.868.498l.622-1.619c-.871-.373-1.619-.498-2.49-.498-.872 0-1.62.25-2.118.623-.498.374-.747.996-.747 1.619 0 .374 0 .747.125.996.124.25.249.498.498.748.249.249.623.498 1.12.622.499.25.873.374.997.498.125.125.25.125.25.25 0 .124.124.124.124.249 0 .124-.125.249-.25.373h-.498zM46.454 34.64c0-1.245-.374-2.117-.997-2.74-.622-.622-1.619-.996-2.864-.996h-2.616v7.722h2.491c1.246 0 2.242-.374 2.99-.996.622-.748.996-1.744.996-2.99zm-2.616 1.744c-.249.374-.747.498-1.37.498h-.498v-4.359h.623c.622 0 .996.125 1.245.498.25.374.374.872.374 1.62.124.747 0 1.37-.374 1.743zM55.795 37.131l.374 1.495h2.242l-2.491-7.722h-2.74l-2.491 7.722h2.242l.373-1.495h2.491zm-1.494-4.11c.124-.373.124-.747.124-.871 0 .249.125.498.25.996.124.498.248.872.248 1.12l.374 1.246h-1.62c.374-1.245.624-2.117.624-2.49zM43.963 25.302l-7.97-7.846-7.847 7.846h-4.483L40.227 8.738H22.916L6.227 25.302H0v1.121h68v-1.12H43.963zM0 44.234h23.912l7.722 7.721 7.846-7.721h4.234l-16.44 16.315h17.437l8.593-8.594 7.846-7.721H68v-1.246H0v1.246z" fill="#060807"/></symbol><symbol id="ico-SOTD" viewBox="0 0 68 68"><path d="M55.068 15L42.685 53.836h-8.457l-6.691-25.12-6.692 25.12h-8.46L0 15h9.615l6.924 26.658L23.077 15h8.919l6.538 26.658L45.46 15h9.61zm6.469 26.352c3.692 0 6.463 2.773 6.463 6.473 0 3.697-2.77 6.473-6.463 6.473s-6.459-2.776-6.459-6.474c-.002-3.7 2.766-6.472 6.459-6.472z" fill="#060807"/></symbol><symbol id="ico-behance" viewBox="0 0 89 57"><path d="M26.359 0c2.667 0 5.1.24 7.296.719 2.197.479 4.08 1.264 5.648 2.354 1.569 1.091 2.785 2.542 3.648 4.352.863 1.81 1.295 4.045 1.295 6.706 0 2.874-.641 5.269-1.922 7.184-1.282 1.916-3.178 3.486-5.688 4.71 3.452 1.012 6.027 2.782 7.728 5.309 1.698 2.529 2.55 5.576 2.55 9.14 0 2.875-.55 5.364-1.648 7.466-1.098 2.103-2.576 3.82-4.432 5.148-1.857 1.331-3.975 2.315-6.354 2.955-2.395.64-4.86.962-7.335.957H0V0h26.359zM24.79 23.072c2.197 0 4-.532 5.413-1.597 1.412-1.064 2.118-2.794 2.118-5.189 0-1.33-.235-2.421-.706-3.273-.47-.85-1.098-1.518-1.882-1.996-.785-.479-1.687-.81-2.707-.998a17.7 17.7 0 0 0-3.177-.279H12.317v13.333H24.79zm.706 24.188c1.202 0 2.354-.12 3.452-.359 1.098-.24 2.065-.639 2.902-1.198.836-.558 1.503-1.317 2-2.275.497-.958.746-2.182.746-3.673 0-2.926-.811-5.015-2.432-6.266-1.622-1.25-3.766-1.876-6.433-1.876H12.317V47.26h13.179zm36.918-1.197c1.673 1.651 4.08 2.475 7.217 2.475 2.248 0 4.184-.571 5.805-1.716 1.621-1.143 2.615-2.355 2.981-3.633h9.806c-1.568 4.95-3.975 8.49-7.217 10.618C77.763 55.936 73.84 57 69.238 57c-3.19 0-6.067-.519-8.63-1.557-2.563-1.037-4.734-2.515-6.51-4.43-1.779-1.916-3.152-4.203-4.12-6.865-.968-2.66-1.45-5.589-1.45-8.782 0-3.086.495-5.96 1.49-8.621.993-2.66 2.404-4.963 4.237-6.906 1.83-1.942 4.013-3.472 6.55-4.59 2.536-1.118 5.348-1.676 8.434-1.676 3.451 0 6.458.678 9.022 2.035 2.562 1.357 4.667 3.182 6.315 5.468 1.647 2.29 2.836 4.898 3.57 7.824.732 2.928.993 5.987.785 9.18H59.669c.156 3.672 1.07 6.334 2.745 7.983zm12.59-21.714c-1.333-1.49-3.36-2.235-6.079-2.235-1.778 0-3.255.306-4.432.918-1.177.613-2.118 1.37-2.825 2.275-.705.905-1.203 1.864-1.49 2.874-.288 1.011-.458 1.916-.51 2.714H77.79c-.523-2.874-1.451-5.055-2.785-6.546zM57.767 2.894h22.642v6.389H57.766V2.894z"/></symbol><symbol id="ico-btn-back" viewBox="0 0 84 84"><path clip-rule="evenodd" d="M28.396 17.146H79V1H1v78h16.146V28.396l54.01 54.01 11.25-11.25-54.01-54.01z"/></symbol><symbol id="ico-btn-link" viewBox="0 0 50 50"><path clip-rule="evenodd" d="M39.65 17.282V50H50V0H0v10.35h32.203L0 41.768l7.186 7.186L39.65 17.282z"/></symbol><symbol id="ico-btn-next" viewBox="0 0 84 84"><path clip-rule="evenodd" d="M55.281 66.268H6V82h76V6H66.268v49.226L13.048 1.951l-11.01 11.02 53.243 53.297z"/></symbol><symbol id="ico-burger-bg" viewBox="0 0 108 108"><path clip-rule="evenodd" d="M54 0c0 29.823-24.177 54-54 54 29.823 0 54 24.177 54 54 0-29.823 24.177-54 54-54-29.823 0-54-24.177-54-54z"/></symbol><symbol id="ico-burger" viewBox="0 0 24 24"><path stroke="#EEBECE" stroke-width="2" d="M2 7h20M2 17h20"/></symbol><symbol id="ico-close" viewBox="0 0 24 24"><path d="M4 4l8 8-8 8M20 4l-8 8 8 8"/></symbol><symbol id="ico-dribbble" viewBox="0 0 78 78"><path d="M0 39c0-7.072 1.742-13.598 5.226-19.578C8.71 13.442 13.442 8.71 19.422 5.226S31.928 0 39 0c7.072 0 13.598 1.742 19.578 5.226 5.98 3.484 10.712 8.216 14.196 14.196S78 31.928 78 39c0 7.072-1.742 13.598-5.226 19.578-3.484 5.98-8.216 10.712-14.196 14.196S46.072 78 39 78c-7.072 0-13.598-1.742-19.578-5.226-5.98-3.484-10.712-8.216-14.196-14.196S0 46.072 0 39zm6.474 0c0 8.112 2.73 15.262 8.19 21.45 2.496-4.888 6.448-9.542 11.856-13.962 5.408-4.42 10.686-7.202 15.834-8.346a92.647 92.647 0 0 0-2.262-4.914c-8.944 2.86-18.616 4.29-29.016 4.29-2.028 0-3.536-.026-4.524-.078 0 .208-.013.468-.039.78a9.705 9.705 0 0 0-.039.78zm1.014-8.034c1.144.104 2.834.156 5.07.156 8.684 0 16.926-1.17 24.726-3.51-3.952-7.02-8.294-12.87-13.026-17.55-4.108 2.08-7.631 4.966-10.569 8.658-2.938 3.692-5.005 7.774-6.201 12.246zM19.11 64.662c5.876 4.576 12.506 6.864 19.89 6.864 3.848 0 7.67-.728 11.466-2.184a114.537 114.537 0 0 0-6.084-25.818c-4.784 1.04-9.607 3.666-14.469 7.878s-8.463 8.632-10.803 13.26zM31.044 7.566c4.576 4.732 8.814 10.634 12.714 17.706 7.072-2.964 12.402-6.734 15.99-11.31C53.716 8.97 46.8 6.474 39 6.474a29.94 29.94 0 0 0-7.956 1.092zM46.566 30.81c.78 1.664 1.664 3.77 2.652 6.318 3.848-.364 8.034-.546 12.558-.546 3.224 0 6.422.078 9.594.234-.416-7.072-2.964-13.364-7.644-18.876-3.38 5.044-9.1 9.334-17.16 12.87zm4.602 11.778A111.956 111.956 0 0 1 56.55 66.3a32.544 32.544 0 0 0 10.062-10.218c2.6-4.16 4.16-8.658 4.68-13.494-3.796-.26-7.254-.39-10.374-.39-2.86 0-6.11.13-9.75.39z"/></symbol><symbol id="ico-facebook" viewBox="0 0 38 73"><path d="M24.665 73V39.7h11.204l1.677-12.976H24.665v-8.286c0-3.757 1.046-6.317 6.447-6.317L38 12.117V.511C36.808.353 32.72 0 27.963 0c-9.931 0-16.73 6.047-16.73 17.154v9.57H0v12.977h11.232V73h13.433z"/></symbol><symbol id="ico-g" viewBox="0 0 308 386"><path d="M141.128 386c93.32 0 150.782-32.626 150.782-84.552 0-64.793-88.262-73.524-150.322-79.958-33.098-3.216-58.842-5.973-58.842-16.083 0-9.19 21.147-10.569 55.624-12.407 79.069-4.136 123.66-29.41 123.66-78.119 0-18.381-5.976-34.464-17.469-46.871l3.678-3.677h55.164L308 0l-32.179 2.298c-22.525 1.838-36.317 24.354-36.776 59.738-21.146-19.3-56.084-29.87-101.135-29.87-77.23 0-124.119 31.248-124.119 82.715 0 35.383 28.042 61.576 73.552 68.929v4.595c-45.51 0-73.552 17.462-73.552 49.628 0 42.736 50.108 51.007 99.755 56.981 48.269 6.434 95.618 10.569 95.618 43.655 0 22.057-21.606 38.141-56.083 38.141-40.454 0-65.738-22.517-65.738-59.739v-13.785L0 294.095l2.299 22.976C6.436 359.807 57.922 386 141.128 386zm-3.218-202.19c-24.823 0-32.179-28.491-32.179-73.524 0-42.276 7.356-68.929 32.179-68.929 24.824 0 32.18 26.653 32.18 68.929 0 45.033-7.356 73.524-32.18 73.524z"/></symbol><symbol id="ico-instagram" viewBox="0 0 72 72"><path d="M24.002 36c0-6.627 5.37-12.001 11.998-12.001 6.627 0 12.001 5.374 12.001 12.001S42.627 48.001 36 48.001 24.002 42.627 24.002 36zm-6.488 0c0 10.21 8.276 18.486 18.486 18.486S54.486 46.21 54.486 36 46.21 17.514 36 17.514 17.514 25.79 17.514 36zm33.383-19.218a4.322 4.322 0 0 0 8.643 0 4.32 4.32 0 0 0-4.322-4.319 4.32 4.32 0 0 0-4.32 4.319zM21.455 65.303c-3.51-.16-5.418-.744-6.686-1.239-1.68-.654-2.879-1.433-4.14-2.692-1.26-1.26-2.042-2.458-2.693-4.138-.495-1.268-1.08-3.176-1.24-6.686-.174-3.794-.208-4.934-.208-14.548s.037-10.75.209-14.548c.16-3.51.747-5.415 1.239-6.686.654-1.68 1.433-2.878 2.692-4.14 1.26-1.26 2.458-2.042 4.141-2.693 1.268-.495 3.176-1.079 6.686-1.239 3.794-.174 4.934-.21 14.545-.21 9.614 0 10.75.038 14.548.21 3.51.16 5.415.747 6.686 1.239 1.68.651 2.878 1.433 4.14 2.693 1.26 1.259 2.039 2.46 2.693 4.14.495 1.268 1.079 3.176 1.239 6.686.175 3.797.21 4.934.21 14.548 0 9.61-.035 10.75-.21 14.548-.16 3.51-.747 5.418-1.239 6.686-.654 1.68-1.433 2.878-2.692 4.138-1.26 1.259-2.46 2.038-4.141 2.692-1.268.495-3.176 1.08-6.686 1.24-3.794.174-4.934.208-14.548.208-9.61 0-10.75-.034-14.545-.209zM21.158.218C17.325.393 14.708 1 12.42 1.89c-2.367.92-4.374 2.152-6.377 4.153-2.001 2-3.234 4.007-4.153 6.377C1 14.708.393 17.325.218 21.158.041 24.996 0 26.224 0 36s.04 11.004.218 14.842c.175 3.833.782 6.45 1.672 8.738.92 2.367 2.15 4.377 4.153 6.377 2 2.001 4.007 3.231 6.377 4.153 2.291.89 4.905 1.497 8.738 1.672C24.999 71.956 26.224 72 36 72c9.78 0 11.004-.04 14.842-.218 3.833-.175 6.45-.782 8.738-1.672 2.367-.922 4.374-2.152 6.377-4.153 2.001-2 3.231-4.01 4.153-6.377.89-2.288 1.5-4.905 1.672-8.738.174-3.841.215-5.066.215-14.842s-.04-11.004-.215-14.842c-.175-3.833-.782-6.45-1.672-8.738-.922-2.367-2.152-4.374-4.153-6.377-2-2.001-4.01-3.234-6.374-4.153C57.292 1 54.675.39 50.845.218 47.007.044 45.779 0 36.003 0c-9.78 0-11.004.04-14.845.218"/></symbol><symbol id="ico-landscape" viewBox="0 0 52 52"><path d="M42 42h8V2H22v20" stroke="#FFF7ED" stroke-width="2"/><path stroke="#FFF7ED" stroke-width="2" d="M2 22h40v28H2zM2 2h10v10M11.706 2L2 11.706"/><path stroke="#FFF7ED" stroke-width="2" d="M17 35h10v8H17zM26 34v-2a4 4 0 0 0-8 0v2M22 38v2"/></symbol><symbol id="ico-link-arrow" viewBox="0 0 38 38"><path clip-rule="evenodd" d="M30 22H2v-6h28v6z"/><path clip-rule="evenodd" d="M28.757 19L14.88 5.122 19.12.879 37.243 19 19.12 37.121 14.88 32.88 28.757 19z"/></symbol><symbol id="ico-link" viewBox="0 0 24 24"><path d="M18 6v13m0 0H5m13 0L5.382 6.382" stroke="#060807" stroke-width="2"/></symbol><symbol id="ico-linkedin" viewBox="0 0 71 68"><path d="M0 7.899c0-2.29.8-4.179 2.399-5.667C3.998.744 6.077 0 8.635 0c2.513 0 4.546.733 6.1 2.198 1.599 1.511 2.398 3.48 2.398 5.907 0 2.198-.776 4.03-2.33 5.495-1.599 1.511-3.7 2.267-6.305 2.267H8.43c-2.513 0-4.546-.756-6.1-2.267C.777 12.089 0 10.188 0 7.899zM.89 68V22.117h15.215V68H.891zm23.645 0h15.214V42.38c0-1.603.183-2.84.548-3.71a9.96 9.96 0 0 1 2.913-3.949c1.302-1.076 2.935-1.614 4.9-1.614 5.117 0 7.676 3.457 7.676 10.372V68H71V41.693c0-6.777-1.6-11.917-4.797-15.42-3.199-3.503-7.425-5.255-12.679-5.255-5.894 0-10.485 2.542-13.775 7.624v.138h-.069l.069-.138v-6.525H24.535c.091 1.465.137 6.022.137 13.669S24.626 54.17 24.535 68z"/></symbol><symbol id="ico-m-behance" viewBox="0 0 24 24"><path d="M7.108 5c.72 0 1.375.063 1.967.19.593.125 1.1.332 1.524.619.423.287.75.669.983 1.145.233.476.35 1.064.35 1.765 0 .756-.173 1.386-.519 1.89-.346.505-.857.918-1.534 1.24.931.266 1.626.732 2.084 1.397.458.665.688 1.467.688 2.405 0 .757-.148 1.412-.444 1.965a3.83 3.83 0 0 1-1.196 1.355c-.5.35-1.072.609-1.713.777A7.782 7.782 0 0 1 7.32 20H0V5h7.108zm-.423 6.072c.592 0 1.079-.14 1.46-.42.38-.28.57-.736.57-1.366 0-.35-.063-.637-.19-.861a1.402 1.402 0 0 0-.507-.526 2.155 2.155 0 0 0-.73-.262 4.889 4.889 0 0 0-.857-.074h-3.11v3.509h3.364zm.19 6.365c.325 0 .635-.032.931-.095.296-.063.557-.168.783-.315a1.59 1.59 0 0 0 .54-.599c.133-.252.2-.574.2-.966 0-.77-.219-1.32-.656-1.65-.437-.328-1.015-.493-1.734-.493H3.32v4.118h3.554zm9.956-.315c.45.434 1.1.651 1.946.651.606 0 1.128-.15 1.565-.451.438-.301.706-.62.804-.956h2.645c-.423 1.302-1.073 2.234-1.947 2.794-.874.56-1.932.84-3.173.84-.86 0-1.636-.137-2.327-.41a4.833 4.833 0 0 1-1.756-1.166 5.235 5.235 0 0 1-1.11-1.806c-.262-.7-.392-1.47-.392-2.311 0-.812.134-1.569.402-2.269.268-.7.648-1.306 1.143-1.817a5.377 5.377 0 0 1 1.766-1.208c.684-.294 1.442-.441 2.274-.441.93 0 1.742.178 2.433.535.69.357 1.259.838 1.703 1.44.444.602.765 1.288.963 2.058.197.77.267 1.576.211 2.416h-7.89c.042.966.288 1.667.74 2.1zm3.395-5.714c-.36-.392-.906-.589-1.64-.589-.479 0-.877.081-1.195.242-.317.161-.57.36-.761.599-.19.238-.325.49-.402.756a3.405 3.405 0 0 0-.138.714h4.887c-.141-.756-.391-1.33-.751-1.722zm-4.649-5.646h6.106v1.68h-6.106v-1.68z"/></symbol><symbol id="ico-m-dribbble" viewBox="0 0 24 24"><path d="M0 12c0-2.176.536-4.184 1.608-6.024a11.915 11.915 0 0 1 4.368-4.368C7.816.536 9.824 0 12 0s4.184.536 6.024 1.608a11.915 11.915 0 0 1 4.368 4.368C23.464 7.816 24 9.824 24 12s-.536 4.184-1.608 6.024a11.915 11.915 0 0 1-4.368 4.368C16.184 23.464 14.176 24 12 24s-4.184-.536-6.024-1.608a11.915 11.915 0 0 1-4.368-4.368C.536 16.184 0 14.176 0 12zm1.992 0c0 2.496.84 4.696 2.52 6.6.768-1.504 1.984-2.936 3.648-4.296 1.664-1.36 3.288-2.216 4.872-2.568-.24-.56-.472-1.064-.696-1.512-2.752.88-5.728 1.32-8.928 1.32-.624 0-1.088-.008-1.392-.024 0 .064-.004.144-.012.24a2.986 2.986 0 0 0-.012.24zm.312-2.472c.352.032.872.048 1.56.048 2.672 0 5.208-.36 7.608-1.08-1.216-2.16-2.552-3.96-4.008-5.4A9.743 9.743 0 0 0 4.212 5.76a10.247 10.247 0 0 0-1.908 3.768zM5.88 19.896c1.808 1.408 3.848 2.112 6.12 2.112 1.184 0 2.36-.224 3.528-.672a35.242 35.242 0 0 0-1.872-7.944c-1.472.32-2.956 1.128-4.452 2.424S6.6 18.472 5.88 19.896zM9.552 2.328c1.408 1.456 2.712 3.272 3.912 5.448 2.176-.912 3.816-2.072 4.92-3.48C16.528 2.76 14.4 1.992 12 1.992c-.816 0-1.632.112-2.448.336zm4.776 7.152c.24.512.512 1.16.816 1.944a41.192 41.192 0 0 1 3.864-.168c.992 0 1.976.024 2.952.072-.128-2.176-.912-4.112-2.352-5.808-1.04 1.552-2.8 2.872-5.28 3.96zm1.416 3.624A34.448 34.448 0 0 1 17.4 20.4a10.014 10.014 0 0 0 3.096-3.144 9.694 9.694 0 0 0 1.44-4.152 47.05 47.05 0 0 0-3.192-.12c-.88 0-1.88.04-3 .12z"/></symbol><symbol id="ico-swipe" viewBox="0 0 48 48"><path d="M25 16l-4 4 4 4" stroke="#060807" stroke-width="2"/><path d="M4 26c0 3.314 8.954 6 20 6s20-2.686 20-6-8.954-6-20-6h-2.5" stroke="#060807" stroke-width="2"/></symbol><symbol id="ico-tick" viewBox="0 0 24 24"><path d="M5 13.286L9.8 18 21 7" stroke="#060807" stroke-width="2"/></symbol></svg>